<mxfile host="app.diagrams.net" agent="Mozilla/5.0 (Windows NT 10.0; Win64; x64; rv:131.0) Gecko/20100101 Firefox/131.0" version="24.7.17">
  <diagram name="Page-1" id="vZZTxxdr3jyS1Wqea_NS">
    <mxGraphModel dx="934" dy="464" grid="1" gridSize="10" guides="1" tooltips="1" connect="1" arrows="1" fold="1" page="1" pageScale="1" pageWidth="850" pageHeight="1100" math="0" shadow="0">
      <root>
        <mxCell id="0" />
        <mxCell id="1" parent="0" />
        <mxCell id="mSPPUpzNZa8i6xdKvo-I-7" value="" style="rounded=1;whiteSpace=wrap;html=1;" parent="1" vertex="1">
          <mxGeometry x="200" y="20" width="220" height="600" as="geometry" />
        </mxCell>
        <mxCell id="HKkaY5HFSosxyiWEdpf5-1" value="Administrator" style="shape=umlActor;verticalLabelPosition=bottom;verticalAlign=top;html=1;outlineConnect=0;" parent="1" vertex="1">
          <mxGeometry x="520" y="245" width="30" height="60" as="geometry" />
        </mxCell>
        <mxCell id="HKkaY5HFSosxyiWEdpf5-2" value="Public" style="shape=umlActor;verticalLabelPosition=bottom;verticalAlign=top;html=1;outlineConnect=0;" parent="1" vertex="1">
          <mxGeometry x="60" y="140" width="30" height="60" as="geometry" />
        </mxCell>
        <mxCell id="HKkaY5HFSosxyiWEdpf5-3" value="Client" style="shape=umlActor;verticalLabelPosition=bottom;verticalAlign=top;html=1;outlineConnect=0;" parent="1" vertex="1">
          <mxGeometry x="60" y="305" width="30" height="60" as="geometry" />
        </mxCell>
        <mxCell id="HKkaY5HFSosxyiWEdpf5-4" value="Instructor" style="shape=umlActor;verticalLabelPosition=bottom;verticalAlign=top;html=1;outlineConnect=0;" parent="1" vertex="1">
          <mxGeometry x="60" y="440" width="30" height="60" as="geometry" />
        </mxCell>
        <mxCell id="HKkaY5HFSosxyiWEdpf5-9" value="Process Offerings" style="ellipse;whiteSpace=wrap;html=1;" parent="1" vertex="1">
          <mxGeometry x="240" y="510" width="140" height="70" as="geometry" />
        </mxCell>
        <mxCell id="HKkaY5HFSosxyiWEdpf5-11" value="" style="endArrow=none;html=1;rounded=0;entryX=0;entryY=0.3333333333333333;entryDx=0;entryDy=0;entryPerimeter=0;" parent="1" source="HKkaY5HFSosxyiWEdpf5-9" target="HKkaY5HFSosxyiWEdpf5-1" edge="1">
          <mxGeometry width="50" height="50" relative="1" as="geometry">
            <mxPoint x="500" y="470" as="sourcePoint" />
            <mxPoint x="550" y="420" as="targetPoint" />
          </mxGeometry>
        </mxCell>
        <mxCell id="HKkaY5HFSosxyiWEdpf5-17" value="View available offerings" style="ellipse;whiteSpace=wrap;html=1;" parent="1" vertex="1">
          <mxGeometry x="240" y="110" width="140" height="70" as="geometry" />
        </mxCell>
        <mxCell id="HKkaY5HFSosxyiWEdpf5-18" value="" style="endArrow=none;html=1;rounded=0;exitX=1;exitY=0.3333333333333333;exitDx=0;exitDy=0;exitPerimeter=0;entryX=0;entryY=0.5;entryDx=0;entryDy=0;" parent="1" source="HKkaY5HFSosxyiWEdpf5-2" target="HKkaY5HFSosxyiWEdpf5-17" edge="1">
          <mxGeometry width="50" height="50" relative="1" as="geometry">
            <mxPoint x="150" y="190" as="sourcePoint" />
            <mxPoint x="140" y="130" as="targetPoint" />
          </mxGeometry>
        </mxCell>
        <mxCell id="HKkaY5HFSosxyiWEdpf5-25" value="Process Bookings" style="ellipse;whiteSpace=wrap;html=1;" parent="1" vertex="1">
          <mxGeometry x="240" y="390" width="140" height="70" as="geometry" />
        </mxCell>
        <mxCell id="HKkaY5HFSosxyiWEdpf5-27" value="" style="endArrow=none;html=1;rounded=0;entryX=0;entryY=0.5;entryDx=0;entryDy=0;exitX=1;exitY=0.3333333333333333;exitDx=0;exitDy=0;exitPerimeter=0;" parent="1" source="HKkaY5HFSosxyiWEdpf5-3" target="HKkaY5HFSosxyiWEdpf5-25" edge="1">
          <mxGeometry width="50" height="50" relative="1" as="geometry">
            <mxPoint x="150" y="350" as="sourcePoint" />
            <mxPoint x="200" y="300" as="targetPoint" />
          </mxGeometry>
        </mxCell>
        <mxCell id="HKkaY5HFSosxyiWEdpf5-28" value="&lt;div&gt;Process Account&lt;/div&gt;&lt;div&gt;(CRUD operations)&lt;br&gt;&lt;/div&gt;" style="ellipse;whiteSpace=wrap;html=1;" parent="1" vertex="1">
          <mxGeometry x="240" y="200" width="140" height="70" as="geometry" />
        </mxCell>
        <mxCell id="mSPPUpzNZa8i6xdKvo-I-6" value="&lt;b&gt;&lt;font style=&quot;font-size: 23px;&quot;&gt;Lesson Scheduler&lt;/font&gt;&lt;/b&gt;" style="text;html=1;align=center;verticalAlign=middle;whiteSpace=wrap;rounded=0;" parent="1" vertex="1">
          <mxGeometry x="230" y="40" width="140" height="30" as="geometry" />
        </mxCell>
        <mxCell id="mSPPUpzNZa8i6xdKvo-I-8" value="" style="endArrow=none;html=1;rounded=0;exitX=1;exitY=0.3333333333333333;exitDx=0;exitDy=0;exitPerimeter=0;entryX=0;entryY=0.5;entryDx=0;entryDy=0;" parent="1" source="HKkaY5HFSosxyiWEdpf5-3" target="HKkaY5HFSosxyiWEdpf5-17" edge="1">
          <mxGeometry width="50" height="50" relative="1" as="geometry">
            <mxPoint x="110" y="290" as="sourcePoint" />
            <mxPoint x="180" y="280" as="targetPoint" />
          </mxGeometry>
        </mxCell>
        <mxCell id="mSPPUpzNZa8i6xdKvo-I-10" value="" style="endArrow=none;html=1;rounded=0;entryX=0;entryY=0.5;entryDx=0;entryDy=0;" parent="1" source="HKkaY5HFSosxyiWEdpf5-4" target="HKkaY5HFSosxyiWEdpf5-9" edge="1">
          <mxGeometry width="50" height="50" relative="1" as="geometry">
            <mxPoint x="620" y="290" as="sourcePoint" />
            <mxPoint x="670" y="240" as="targetPoint" />
          </mxGeometry>
        </mxCell>
        <mxCell id="mSPPUpzNZa8i6xdKvo-I-11" value="" style="endArrow=none;html=1;rounded=0;exitX=1;exitY=0.3333333333333333;exitDx=0;exitDy=0;exitPerimeter=0;entryX=0;entryY=0.5;entryDx=0;entryDy=0;" parent="1" source="HKkaY5HFSosxyiWEdpf5-3" target="HKkaY5HFSosxyiWEdpf5-28" edge="1">
          <mxGeometry width="50" height="50" relative="1" as="geometry">
            <mxPoint x="620" y="290" as="sourcePoint" />
            <mxPoint x="670" y="240" as="targetPoint" />
          </mxGeometry>
        </mxCell>
        <mxCell id="mSPPUpzNZa8i6xdKvo-I-12" value="" style="endArrow=none;html=1;rounded=0;exitX=0;exitY=0.5;exitDx=0;exitDy=0;" parent="1" source="HKkaY5HFSosxyiWEdpf5-28" edge="1">
          <mxGeometry width="50" height="50" relative="1" as="geometry">
            <mxPoint x="620" y="290" as="sourcePoint" />
            <mxPoint x="90" y="160" as="targetPoint" />
          </mxGeometry>
        </mxCell>
        <mxCell id="mSPPUpzNZa8i6xdKvo-I-13" value="" style="endArrow=none;html=1;rounded=0;entryX=0;entryY=0.3333333333333333;entryDx=0;entryDy=0;entryPerimeter=0;exitX=1;exitY=0.5;exitDx=0;exitDy=0;" parent="1" source="HKkaY5HFSosxyiWEdpf5-28" target="HKkaY5HFSosxyiWEdpf5-1" edge="1">
          <mxGeometry width="50" height="50" relative="1" as="geometry">
            <mxPoint x="620" y="290" as="sourcePoint" />
            <mxPoint x="670" y="240" as="targetPoint" />
          </mxGeometry>
        </mxCell>
        <mxCell id="mSPPUpzNZa8i6xdKvo-I-14" value="" style="endArrow=none;html=1;rounded=0;entryX=0;entryY=0.5;entryDx=0;entryDy=0;" parent="1" source="HKkaY5HFSosxyiWEdpf5-4" target="HKkaY5HFSosxyiWEdpf5-28" edge="1">
          <mxGeometry width="50" height="50" relative="1" as="geometry">
            <mxPoint x="620" y="290" as="sourcePoint" />
            <mxPoint x="670" y="240" as="targetPoint" />
          </mxGeometry>
        </mxCell>
        <mxCell id="dO9jXsoTX9qNK-PKaOPZ-1" value="View/Cancel Bookings" style="ellipse;whiteSpace=wrap;html=1;" vertex="1" parent="1">
          <mxGeometry x="240" y="300" width="140" height="70" as="geometry" />
        </mxCell>
        <mxCell id="dO9jXsoTX9qNK-PKaOPZ-2" value="" style="endArrow=none;html=1;rounded=0;exitX=1;exitY=0.5;exitDx=0;exitDy=0;entryX=0;entryY=0.3333333333333333;entryDx=0;entryDy=0;entryPerimeter=0;" edge="1" parent="1" source="dO9jXsoTX9qNK-PKaOPZ-1" target="HKkaY5HFSosxyiWEdpf5-1">
          <mxGeometry width="50" height="50" relative="1" as="geometry">
            <mxPoint x="380" y="530" as="sourcePoint" />
            <mxPoint x="490" y="270" as="targetPoint" />
          </mxGeometry>
        </mxCell>
        <mxCell id="dO9jXsoTX9qNK-PKaOPZ-3" value="" style="endArrow=none;html=1;rounded=0;exitX=1;exitY=0.3333333333333333;exitDx=0;exitDy=0;exitPerimeter=0;entryX=0;entryY=0.5;entryDx=0;entryDy=0;" edge="1" parent="1" source="HKkaY5HFSosxyiWEdpf5-3" target="dO9jXsoTX9qNK-PKaOPZ-1">
          <mxGeometry width="50" height="50" relative="1" as="geometry">
            <mxPoint x="280" y="370" as="sourcePoint" />
            <mxPoint x="330" y="320" as="targetPoint" />
          </mxGeometry>
        </mxCell>
      </root>
    </mxGraphModel>
  </diagram>
</mxfile>
